<svg id="Camada_1" data-name="Camada 1" xmlns="http://www.w3.org/2000/svg" viewBox="0 0 841.89 595.28"><defs><style>.cls-1{fill:#13213c;}.cls-2{fill:#faa445;}</style></defs><title>DaPrancheta 1</title><path id="Caminho_8" data-name="Caminho 8" class="cls-1" d="M286.06,102.69h0a17.3,17.3,0,0,1,24.46,0h0a17.38,17.38,0,0,1,5.05,12.91,17.1,17.1,0,0,1-5.05,11.55h0a17.29,17.29,0,0,1-24.46,0h0a17.3,17.3,0,0,1,0-24.46Z"/><path class="cls-2" d="M270.54,87.1h0A8.63,8.63,0,0,0,256,95.18l-19,19a1,1,0,0,0,0,1.38l18,18,6.47-6.47L250,115.55a1,1,0,0,1,0-1.38l12.54-12.54a8.83,8.83,0,0,0,1.91.23,8.61,8.61,0,0,0,6.12-2.53,8.5,8.5,0,0,0,2.52-5.77A8.7,8.7,0,0,0,270.54,87.1Zm-2.47,9.76a5.16,5.16,0,1,1,0-7.29,5.24,5.24,0,0,1,1.51,3.87A5,5,0,0,1,268.07,96.86Z"/><path class="cls-2" d="M325.83,75h0a8.57,8.57,0,0,0-7.92-2.33l-19-19a1,1,0,0,0-1.38,0l-18,18L286,78.13,297.54,66.6a1,1,0,0,1,1.38,0L311.35,79A8.63,8.63,0,1,0,325.83,75Zm-2.47,9.76a5.15,5.15,0,1,1,0-7.3,5.26,5.26,0,0,1,1.51,3.87A5.1,5.1,0,0,1,323.36,84.75Z"/><path class="cls-2" d="M359.5,114.24l-18-18L335,102.72l11.52,11.52a1,1,0,0,1,0,1.39L334,128.15a8.57,8.57,0,0,0-1.89-.23,8.65,8.65,0,1,0,6.12,14.76,8.41,8.41,0,0,0,2.26-8.09l19-19A1,1,0,0,0,359.5,114.24Zm-23.7,26a5.16,5.16,0,1,1,1.5-3.43A5,5,0,0,1,335.8,140.21Z"/><path class="cls-2" d="M317,158.13l-6.47-6.47L299,163.19a1,1,0,0,1-1.39,0l-12.49-12.5a8.44,8.44,0,0,0,.2-1.6,8.69,8.69,0,0,0-2.52-6.45h0a8.7,8.7,0,1,0-4.16,14.51l19,19a1,1,0,0,0,1.39,0Zm-44-5.73a5.15,5.15,0,1,1,7.28-7.29,5.18,5.18,0,0,1,1.51,3.86,5,5,0,0,1-1.5,3.43,5.15,5.15,0,0,1-7.29,0Z"/><path class="cls-1" d="M426.71,103.13a6.53,6.53,0,0,1-4.15,7.33l-31.84,13.83h35.44v8H384.32a6.64,6.64,0,0,1-2.39-12.83l31.83-13.83H377.69v-8h42.48A6.54,6.54,0,0,1,426.71,103.13Z"/><path class="cls-1" d="M453.24,132.1a17.27,17.27,0,0,1,0-34.53l30.5.13,0,8-30.49-.13a9.3,9.3,0,0,0,0,18.59l30.5.13,0,8Zm0-13.15,0-8,30.48.13,0,8Z"/><path class="cls-1" d="M508.34,132.1a17.27,17.27,0,0,1,0-34.53l30.51.13,0,8-30.48-.13a9.3,9.3,0,0,0,0,18.59l30.51.13,0,8Zm0-13.15,0-8,30.49.13,0,8Z"/><path class="cls-1" d="M594,108.27A10.7,10.7,0,0,1,583.3,119H559.46v-8H583.3a2.73,2.73,0,0,0,0-5.45H554.15v26.74h-8V104.22a6.64,6.64,0,0,1,6.64-6.63H583.3A10.7,10.7,0,0,1,594,108.27Z"/><path class="cls-2" d="M302.33,261.77h0a8.63,8.63,0,0,0-14.51,8.08l-19,19a1,1,0,0,0,0,1.38l18,18,6.47-6.47-11.52-11.51a1,1,0,0,1,0-1.38L294.3,276.3a8.83,8.83,0,0,0,1.91.23,8.61,8.61,0,0,0,6.12-2.53,8.5,8.5,0,0,0,2.52-5.78A8.69,8.69,0,0,0,302.33,261.77Zm-2.47,9.76a5.15,5.15,0,1,1-3.65-8.8,5.1,5.1,0,0,1,3.64,1.51,5.17,5.17,0,0,1,1.51,3.87A5,5,0,0,1,299.86,271.53Z"/><path class="cls-2" d="M564.34,288.91l-18-18-6.47,6.47,11.53,11.52a1,1,0,0,1,0,1.39l-12.53,12.52a8.5,8.5,0,0,0-9.08,3.62,8.65,8.65,0,0,0,13.31,10.91,8.32,8.32,0,0,0,2.26-8.09l19-19A1,1,0,0,0,564.34,288.91Zm-23.7,26a5.16,5.16,0,1,1,0-7.29,5.22,5.22,0,0,1,1.51,3.86A5.06,5.06,0,0,1,540.64,314.88Z"/><path class="cls-1" d="M361.85,277.8a6.54,6.54,0,0,1-4.16,7.33L325.86,299h35.43v8H319.45a6.64,6.64,0,0,1-2.39-12.83l31.84-13.83H312.82v-8h42.49A6.55,6.55,0,0,1,361.85,277.8Z"/><path class="cls-1" d="M388.38,306.77a17.27,17.27,0,0,1,0-34.53l30.51.13,0,8-30.48-.13a9.3,9.3,0,0,0,0,18.59l30.51.13,0,8Zm0-13.15,0-8,30.49.13,0,8Z"/><path class="cls-1" d="M443.47,306.77a17.27,17.27,0,0,1,0-34.53l30.5.13,0,8-30.48-.13a9.3,9.3,0,0,0,0,18.59l30.5.13,0,8Zm0-13.15,0-8,30.49.13,0,8Z"/><path class="cls-1" d="M529.12,282.94a10.7,10.7,0,0,1-10.69,10.69H494.59v-8h23.84a2.73,2.73,0,0,0,0-5.45H489.28V307h-8V278.89a6.65,6.65,0,0,1,6.64-6.64h30.48A10.71,10.71,0,0,1,529.12,282.94Z"/><path id="Caminho_8-2" data-name="Caminho 8" class="cls-1" d="M406.32,429.85h0a14.6,14.6,0,0,1,20.65,0h0a14.68,14.68,0,0,1,4.27,10.9A14.47,14.47,0,0,1,427,450.5h0a14.6,14.6,0,0,1-20.65,0h0a14.59,14.59,0,0,1,0-20.65Z"/><path class="cls-2" d="M393.21,416.68h0A7.28,7.28,0,0,0,381,423.5L365,439.43a1,1,0,0,0,0,1.38l15.08,15.08,5.46-5.46L376,440.81a1,1,0,0,1,0-1.38L386.43,429a7.15,7.15,0,0,0,6.78-1.94,7.2,7.2,0,0,0,2.13-4.88A7.32,7.32,0,0,0,393.21,416.68Zm-2.09,8.24a4.34,4.34,0,1,1,0-6.16,4.41,4.41,0,0,1,1.27,3.27A4.2,4.2,0,0,1,391.12,424.92Z"/><path class="cls-2" d="M439.9,406.45h0a7.29,7.29,0,0,0-5.16-2.14,7.09,7.09,0,0,0-1.52.18l-15.94-15.93a1,1,0,0,0-1.38,0l-15.09,15.09,5.46,5.46,9.63-9.63a1,1,0,0,1,1.38,0l10.4,10.39a7.29,7.29,0,1,0,14.36,2A7.37,7.37,0,0,0,439.9,406.45Zm-2.08,8.24a4.35,4.35,0,0,1-6.16,0,4.35,4.35,0,0,1,6.15-6.16,4.42,4.42,0,0,1,1.28,3.27A4.29,4.29,0,0,1,437.82,414.69Z"/><path class="cls-2" d="M468.22,439.49l-15.08-15.08-5.47,5.46,9.63,9.62a1,1,0,0,1,0,1.39l-10.47,10.46a7.06,7.06,0,0,0-1.59-.19,7.29,7.29,0,1,0,7.3,7.59,7.44,7.44,0,0,0-.23-1.95l15.91-15.91A1,1,0,0,0,468.22,439.49Zm-19.9,22a4.35,4.35,0,1,1,0-6.16,4.42,4.42,0,0,1,1.28,3.27A4.29,4.29,0,0,1,448.32,461.53Z"/><path class="cls-2" d="M432.44,476.66,427,471.2l-9.63,9.63a1,1,0,0,1-1.38,0l-10.45-10.45a7.56,7.56,0,0,0,.18-1.35,7.35,7.35,0,0,0-2.14-5.45h0A7.3,7.3,0,1,0,398.4,476a7,7,0,0,0,1.65-.21L416,491.75a1,1,0,0,0,1.38,0Zm-37.12-4.84a4.36,4.36,0,0,1,0-6.15,4.35,4.35,0,0,1,6.15,0,4.42,4.42,0,0,1,1.28,3.27,4.29,4.29,0,0,1-1.27,2.89,4.37,4.37,0,0,1-6.16,0Z"/><path class="cls-1" d="M366.71,509.4a5.52,5.52,0,0,1-3.51,6.19l-26.88,11.68h29.92V534H330.91a5.61,5.61,0,0,1-2-10.84l26.88-11.68H325.32v-6.72h35.87A5.52,5.52,0,0,1,366.71,509.4Z"/><path class="cls-1" d="M389.12,533.86a14.58,14.58,0,1,1,0-29.15l25.76.11,0,6.73-25.74-.11a7.85,7.85,0,0,0,0,15.7l25.76.11,0,6.73Zm0-11.1,0-6.73,25.74.12,0,6.72Z"/><path class="cls-1" d="M435.64,533.86a14.58,14.58,0,1,1,0-29.15l25.76.11,0,6.73-25.74-.11a7.85,7.85,0,0,0,0,15.7l25.76.11,0,6.73Zm0-11.1,0-6.73,25.74.12,0,6.72Z"/><path class="cls-1" d="M508,513.75a9,9,0,0,1-9,9H478.81v-6.72h20.12a2.3,2.3,0,0,0,0-4.6H474.32V534h-6.73v-23.7a5.62,5.62,0,0,1,5.61-5.61h25.73A9,9,0,0,1,508,513.75Z"/></svg>