<svg id="Camada_1" data-name="Camada 1" xmlns="http://www.w3.org/2000/svg" xmlns:xlink="http://www.w3.org/1999/xlink" viewBox="0 0 841.89 595.28"><defs><style>.cls-1{fill:none;}.cls-2{fill:#faa445;}.cls-3{fill:#13213c;}.cls-4{clip-path:url(#clip-path);}.cls-5{fill:url(#Novo_padr찾o_2);}</style><clipPath id="clip-path"><rect class="cls-1" x="-1" y="-0.16" width="840.96" height="594.23"/></clipPath><pattern id="Novo_padr찾o_2" data-name="Novo padr찾o 2" width="116.57" height="157.38" patternTransform="translate(769.66 114.44)" patternUnits="userSpaceOnUse" viewBox="0 0 116.57 157.38"><rect class="cls-1" width="116.57" height="157.38"/><path class="cls-2" d="M100.18,57.68A17.47,17.47,0,0,1,95,69.53,17.7,17.7,0,0,1,65.29,52.75L39.61,27.07a1.76,1.76,0,0,0-2.51,0L13.27,50.89,0,37.62,37.1.52a1.78,1.78,0,0,1,2.51,0L78.75,39.66A17.48,17.48,0,0,1,95,44.44h0A17.81,17.81,0,0,1,100.18,57.68ZM93,57.44a10.7,10.7,0,0,0-3.1-7.94,10.58,10.58,0,1,0,0,15A10.31,10.31,0,0,0,93,57.44Z"/><path class="cls-2" d="M79.47,156.86a1.78,1.78,0,0,1-2.51,0l-39.1-39.1a17.55,17.55,0,0,1-4,.51A17.75,17.75,0,1,1,46.39,88h0a17.8,17.8,0,0,1,4.76,16.52L77,130.31a1.76,1.76,0,0,0,2.51,0l23.83-23.82,13.27,13.27ZM33.85,111.1a10.48,10.48,0,0,0,7.47-3.1,10.31,10.31,0,0,0,3.09-7A10.7,10.7,0,0,0,41.31,93a10.57,10.57,0,1,0-7.46,18.06Z"/></pattern></defs><title>DaPrancheta 1 c처pia 4</title><rect class="cls-3" x="-1" y="-0.16" width="840.96" height="594.23"/><g class="cls-4"><rect class="cls-5" x="-59.27" y="1.42" width="931.69" height="613.6"/></g></svg>